M48
; DRILL file {KiCad (5.1.4)-1} date 10/19/2022 10:43:12 PM
; FORMAT={-:-/ absolute / inch / decimal}
; #@! TF.CreationDate,2022-10-19T22:43:12-05:00
; #@! TF.GenerationSoftware,Kicad,Pcbnew,(5.1.4)-1
; #@! TF.FileFunction,Plated,1,2,PTH
FMAT,2
INCH
T1C0.0157
T2C0.0236
T3C0.0579
%
G90
G05
T1
X2.01Y-4.33
X2.01Y-4.3694
X2.05Y-4.0206
X2.05Y-4.06
X2.0824Y-3.9983
X2.64Y-4.43
X2.89Y-4.35
X2.91Y-4.2532
X2.93Y-4.35
X3.06Y-4.3115
X3.0827Y-4.2735
X3.15Y-4.65
X3.63Y-4.52
X3.67Y-4.16
X3.7195Y-4.3099
X3.7198Y-4.2302
X3.72Y-4.27
X3.7318Y-4.19
X3.75Y-5.16
T3
X2.44Y-3.88
X2.4416Y-3.9028
X2.6384Y-3.9225
X2.69Y-3.98
X2.6Y-4.63
X2.6016Y-4.6528
X2.7984Y-4.6725
X2.85Y-4.73
X3.35Y-4.63
X3.3516Y-4.6528
X3.5484Y-4.6725
X3.6Y-4.73
X1.85Y-4.63
X1.8516Y-4.6528
X2.0484Y-4.6725
X2.1Y-4.73
T2
G00X1.7099Y-3.5006
M15
G01X1.7099Y-3.5242
M16
G05
G00X1.7099Y-3.6553
M15
G01X1.7099Y-3.6986
M16
G05
G00X2.0501Y-3.5006
M15
G01X2.0501Y-3.5242
M16
G05
G00X2.0501Y-3.6553
M15
G01X2.0501Y-3.6986
M16
G05
T0
M30
