G04 #@! TF.GenerationSoftware,KiCad,Pcbnew,(5.1.4)-1*
G04 #@! TF.CreationDate,2022-10-19T22:43:07-05:00*
G04 #@! TF.ProjectId,MusePad,4d757365-5061-4642-9e6b-696361645f70,rev?*
G04 #@! TF.SameCoordinates,Original*
G04 #@! TF.FileFunction,Legend,Bot*
G04 #@! TF.FilePolarity,Positive*
%FSLAX46Y46*%
G04 Gerber Fmt 4.6, Leading zero omitted, Abs format (unit mm)*
G04 Created by KiCad (PCBNEW (5.1.4)-1) date 2022-10-19 22:43:07*
%MOMM*%
%LPD*%
G04 APERTURE LIST*
%ADD10C,0.150000*%
%ADD11C,0.120000*%
G04 APERTURE END LIST*
D10*
X50046000Y-109860000D02*
X50046000Y-104660000D01*
X50046000Y-104660000D02*
X44846000Y-104660000D01*
X44846000Y-104660000D02*
X44846000Y-109860000D01*
X44846000Y-109860000D02*
X50046000Y-109860000D01*
X48446000Y-107260000D02*
G75*
G03X48446000Y-107260000I-1000000J0D01*
G01*
D11*
X87428000Y-98336000D02*
X83428000Y-98336000D01*
X87428000Y-95036000D02*
X87428000Y-98336000D01*
D10*
X80169000Y-111788000D02*
X78894000Y-111788000D01*
X90519000Y-112363000D02*
X89844000Y-112363000D01*
X90519000Y-102013000D02*
X89844000Y-102013000D01*
X80169000Y-102013000D02*
X80844000Y-102013000D01*
X80169000Y-112363000D02*
X80844000Y-112363000D01*
X80169000Y-102013000D02*
X80169000Y-102688000D01*
X90519000Y-102013000D02*
X90519000Y-102688000D01*
X90519000Y-112363000D02*
X90519000Y-111688000D01*
X80169000Y-112363000D02*
X80169000Y-111788000D01*
D11*
X46176000Y-97960922D02*
X46176000Y-98478078D01*
X44756000Y-97960922D02*
X44756000Y-98478078D01*
X52272000Y-97960922D02*
X52272000Y-98478078D01*
X50852000Y-97960922D02*
X50852000Y-98478078D01*
X93016000Y-112702078D02*
X93016000Y-112184922D01*
X94436000Y-112702078D02*
X94436000Y-112184922D01*
X42366000Y-109390922D02*
X42366000Y-109908078D01*
X40946000Y-109390922D02*
X40946000Y-109908078D01*
X48820000Y-98478078D02*
X48820000Y-97960922D01*
X50240000Y-98478078D02*
X50240000Y-97960922D01*
X46788000Y-98478078D02*
X46788000Y-97960922D01*
X48208000Y-98478078D02*
X48208000Y-97960922D01*
X42270000Y-99278064D02*
X42270000Y-98073936D01*
X44090000Y-99278064D02*
X44090000Y-98073936D01*
X48244000Y-131662000D02*
X48244000Y-127762000D01*
X46244000Y-131662000D02*
X46244000Y-127762000D01*
X48244000Y-131662000D02*
X46244000Y-131662000D01*
X67040000Y-131662000D02*
X67040000Y-127762000D01*
X65040000Y-131662000D02*
X65040000Y-127762000D01*
X67040000Y-131662000D02*
X65040000Y-131662000D01*
X66004000Y-110760000D02*
X62104000Y-110760000D01*
X66004000Y-112760000D02*
X62104000Y-112760000D01*
X66004000Y-110760000D02*
X66004000Y-112760000D01*
X85328000Y-131662000D02*
X85328000Y-127762000D01*
X83328000Y-131662000D02*
X83328000Y-127762000D01*
X85328000Y-131662000D02*
X83328000Y-131662000D01*
X75490000Y-105922578D02*
X75490000Y-105405422D01*
X76910000Y-105922578D02*
X76910000Y-105405422D01*
X75490000Y-109557078D02*
X75490000Y-109039922D01*
X76910000Y-109557078D02*
X76910000Y-109039922D01*
X93778000Y-103812078D02*
X93778000Y-103294922D01*
X95198000Y-103812078D02*
X95198000Y-103294922D01*
X90096078Y-116280000D02*
X89578922Y-116280000D01*
X90096078Y-114860000D02*
X89578922Y-114860000D01*
X80466000Y-96436922D02*
X80466000Y-96954078D01*
X79046000Y-96436922D02*
X79046000Y-96954078D01*
X89714000Y-96857078D02*
X89714000Y-96339922D01*
X91134000Y-96857078D02*
X91134000Y-96339922D01*
X80591922Y-115368000D02*
X81109078Y-115368000D01*
X80591922Y-116788000D02*
X81109078Y-116788000D01*
D10*
X48085333Y-95316380D02*
X48085333Y-96030666D01*
X48132952Y-96173523D01*
X48228190Y-96268761D01*
X48371047Y-96316380D01*
X48466285Y-96316380D01*
X47085333Y-96316380D02*
X47656761Y-96316380D01*
X47371047Y-96316380D02*
X47371047Y-95316380D01*
X47466285Y-95459238D01*
X47561523Y-95554476D01*
X47656761Y-95602095D01*
X43786761Y-105926666D02*
X43834380Y-106069523D01*
X43834380Y-106307619D01*
X43786761Y-106402857D01*
X43739142Y-106450476D01*
X43643904Y-106498095D01*
X43548666Y-106498095D01*
X43453428Y-106450476D01*
X43405809Y-106402857D01*
X43358190Y-106307619D01*
X43310571Y-106117142D01*
X43262952Y-106021904D01*
X43215333Y-105974285D01*
X43120095Y-105926666D01*
X43024857Y-105926666D01*
X42929619Y-105974285D01*
X42882000Y-106021904D01*
X42834380Y-106117142D01*
X42834380Y-106355238D01*
X42882000Y-106498095D01*
X42834380Y-106831428D02*
X43834380Y-107069523D01*
X43120095Y-107260000D01*
X43834380Y-107450476D01*
X42834380Y-107688571D01*
X43834380Y-108593333D02*
X43834380Y-108021904D01*
X43834380Y-108307619D02*
X42834380Y-108307619D01*
X42977238Y-108212380D01*
X43072476Y-108117142D01*
X43120095Y-108021904D01*
X85904190Y-94212190D02*
X85904190Y-94688380D01*
X86237523Y-93688380D02*
X85904190Y-94212190D01*
X85570857Y-93688380D01*
X84713714Y-94688380D02*
X85285142Y-94688380D01*
X84999428Y-94688380D02*
X84999428Y-93688380D01*
X85094666Y-93831238D01*
X85189904Y-93926476D01*
X85285142Y-93974095D01*
X86105904Y-114090380D02*
X86105904Y-114899904D01*
X86058285Y-114995142D01*
X86010666Y-115042761D01*
X85915428Y-115090380D01*
X85724952Y-115090380D01*
X85629714Y-115042761D01*
X85582095Y-114995142D01*
X85534476Y-114899904D01*
X85534476Y-114090380D01*
X84534476Y-115090380D02*
X85105904Y-115090380D01*
X84820190Y-115090380D02*
X84820190Y-114090380D01*
X84915428Y-114233238D01*
X85010666Y-114328476D01*
X85105904Y-114376095D01*
X44268380Y-98052833D02*
X43792190Y-97719500D01*
X44268380Y-97481404D02*
X43268380Y-97481404D01*
X43268380Y-97862357D01*
X43316000Y-97957595D01*
X43363619Y-98005214D01*
X43458857Y-98052833D01*
X43601714Y-98052833D01*
X43696952Y-98005214D01*
X43744571Y-97957595D01*
X43792190Y-97862357D01*
X43792190Y-97481404D01*
X43268380Y-98909976D02*
X43268380Y-98719500D01*
X43316000Y-98624261D01*
X43363619Y-98576642D01*
X43506476Y-98481404D01*
X43696952Y-98433785D01*
X44077904Y-98433785D01*
X44173142Y-98481404D01*
X44220761Y-98529023D01*
X44268380Y-98624261D01*
X44268380Y-98814738D01*
X44220761Y-98909976D01*
X44173142Y-98957595D01*
X44077904Y-99005214D01*
X43839809Y-99005214D01*
X43744571Y-98957595D01*
X43696952Y-98909976D01*
X43649333Y-98814738D01*
X43649333Y-98624261D01*
X43696952Y-98529023D01*
X43744571Y-98481404D01*
X43839809Y-98433785D01*
X50364380Y-98052833D02*
X49888190Y-97719500D01*
X50364380Y-97481404D02*
X49364380Y-97481404D01*
X49364380Y-97862357D01*
X49412000Y-97957595D01*
X49459619Y-98005214D01*
X49554857Y-98052833D01*
X49697714Y-98052833D01*
X49792952Y-98005214D01*
X49840571Y-97957595D01*
X49888190Y-97862357D01*
X49888190Y-97481404D01*
X49364380Y-98957595D02*
X49364380Y-98481404D01*
X49840571Y-98433785D01*
X49792952Y-98481404D01*
X49745333Y-98576642D01*
X49745333Y-98814738D01*
X49792952Y-98909976D01*
X49840571Y-98957595D01*
X49935809Y-99005214D01*
X50173904Y-99005214D01*
X50269142Y-98957595D01*
X50316761Y-98909976D01*
X50364380Y-98814738D01*
X50364380Y-98576642D01*
X50316761Y-98481404D01*
X50269142Y-98433785D01*
X95828380Y-112276833D02*
X95352190Y-111943500D01*
X95828380Y-111705404D02*
X94828380Y-111705404D01*
X94828380Y-112086357D01*
X94876000Y-112181595D01*
X94923619Y-112229214D01*
X95018857Y-112276833D01*
X95161714Y-112276833D01*
X95256952Y-112229214D01*
X95304571Y-112181595D01*
X95352190Y-112086357D01*
X95352190Y-111705404D01*
X95161714Y-113133976D02*
X95828380Y-113133976D01*
X94780761Y-112895880D02*
X95495047Y-112657785D01*
X95495047Y-113276833D01*
X40458380Y-109482833D02*
X39982190Y-109149500D01*
X40458380Y-108911404D02*
X39458380Y-108911404D01*
X39458380Y-109292357D01*
X39506000Y-109387595D01*
X39553619Y-109435214D01*
X39648857Y-109482833D01*
X39791714Y-109482833D01*
X39886952Y-109435214D01*
X39934571Y-109387595D01*
X39982190Y-109292357D01*
X39982190Y-108911404D01*
X39458380Y-109816166D02*
X39458380Y-110435214D01*
X39839333Y-110101880D01*
X39839333Y-110244738D01*
X39886952Y-110339976D01*
X39934571Y-110387595D01*
X40029809Y-110435214D01*
X40267904Y-110435214D01*
X40363142Y-110387595D01*
X40410761Y-110339976D01*
X40458380Y-110244738D01*
X40458380Y-109959023D01*
X40410761Y-109863785D01*
X40363142Y-109816166D01*
X51632380Y-98052833D02*
X51156190Y-97719500D01*
X51632380Y-97481404D02*
X50632380Y-97481404D01*
X50632380Y-97862357D01*
X50680000Y-97957595D01*
X50727619Y-98005214D01*
X50822857Y-98052833D01*
X50965714Y-98052833D01*
X51060952Y-98005214D01*
X51108571Y-97957595D01*
X51156190Y-97862357D01*
X51156190Y-97481404D01*
X50727619Y-98433785D02*
X50680000Y-98481404D01*
X50632380Y-98576642D01*
X50632380Y-98814738D01*
X50680000Y-98909976D01*
X50727619Y-98957595D01*
X50822857Y-99005214D01*
X50918095Y-99005214D01*
X51060952Y-98957595D01*
X51632380Y-98386166D01*
X51632380Y-99005214D01*
X49600380Y-98052833D02*
X49124190Y-97719500D01*
X49600380Y-97481404D02*
X48600380Y-97481404D01*
X48600380Y-97862357D01*
X48648000Y-97957595D01*
X48695619Y-98005214D01*
X48790857Y-98052833D01*
X48933714Y-98052833D01*
X49028952Y-98005214D01*
X49076571Y-97957595D01*
X49124190Y-97862357D01*
X49124190Y-97481404D01*
X49600380Y-99005214D02*
X49600380Y-98433785D01*
X49600380Y-98719500D02*
X48600380Y-98719500D01*
X48743238Y-98624261D01*
X48838476Y-98529023D01*
X48886095Y-98433785D01*
X44928571Y-98342666D02*
X44928571Y-98009333D01*
X45452380Y-98009333D02*
X44452380Y-98009333D01*
X44452380Y-98485523D01*
X45452380Y-99390285D02*
X45452380Y-98818857D01*
X45452380Y-99104571D02*
X44452380Y-99104571D01*
X44595238Y-99009333D01*
X44690476Y-98914095D01*
X44738095Y-98818857D01*
X49696380Y-128673904D02*
X48696380Y-128673904D01*
X48696380Y-128912000D01*
X48744000Y-129054857D01*
X48839238Y-129150095D01*
X48934476Y-129197714D01*
X49124952Y-129245333D01*
X49267809Y-129245333D01*
X49458285Y-129197714D01*
X49553523Y-129150095D01*
X49648761Y-129054857D01*
X49696380Y-128912000D01*
X49696380Y-128673904D01*
X49029714Y-130102476D02*
X49696380Y-130102476D01*
X48648761Y-129864380D02*
X49363047Y-129626285D01*
X49363047Y-130245333D01*
X68492380Y-128673904D02*
X67492380Y-128673904D01*
X67492380Y-128912000D01*
X67540000Y-129054857D01*
X67635238Y-129150095D01*
X67730476Y-129197714D01*
X67920952Y-129245333D01*
X68063809Y-129245333D01*
X68254285Y-129197714D01*
X68349523Y-129150095D01*
X68444761Y-129054857D01*
X68492380Y-128912000D01*
X68492380Y-128673904D01*
X67492380Y-129578666D02*
X67492380Y-130197714D01*
X67873333Y-129864380D01*
X67873333Y-130007238D01*
X67920952Y-130102476D01*
X67968571Y-130150095D01*
X68063809Y-130197714D01*
X68301904Y-130197714D01*
X68397142Y-130150095D01*
X68444761Y-130102476D01*
X68492380Y-130007238D01*
X68492380Y-129721523D01*
X68444761Y-129626285D01*
X68397142Y-129578666D01*
X64492095Y-110212380D02*
X64492095Y-109212380D01*
X64254000Y-109212380D01*
X64111142Y-109260000D01*
X64015904Y-109355238D01*
X63968285Y-109450476D01*
X63920666Y-109640952D01*
X63920666Y-109783809D01*
X63968285Y-109974285D01*
X64015904Y-110069523D01*
X64111142Y-110164761D01*
X64254000Y-110212380D01*
X64492095Y-110212380D01*
X63539714Y-109307619D02*
X63492095Y-109260000D01*
X63396857Y-109212380D01*
X63158761Y-109212380D01*
X63063523Y-109260000D01*
X63015904Y-109307619D01*
X62968285Y-109402857D01*
X62968285Y-109498095D01*
X63015904Y-109640952D01*
X63587333Y-110212380D01*
X62968285Y-110212380D01*
X86780380Y-128673904D02*
X85780380Y-128673904D01*
X85780380Y-128912000D01*
X85828000Y-129054857D01*
X85923238Y-129150095D01*
X86018476Y-129197714D01*
X86208952Y-129245333D01*
X86351809Y-129245333D01*
X86542285Y-129197714D01*
X86637523Y-129150095D01*
X86732761Y-129054857D01*
X86780380Y-128912000D01*
X86780380Y-128673904D01*
X86780380Y-130197714D02*
X86780380Y-129626285D01*
X86780380Y-129912000D02*
X85780380Y-129912000D01*
X85923238Y-129816761D01*
X86018476Y-129721523D01*
X86066095Y-129626285D01*
X78207142Y-105497333D02*
X78254761Y-105449714D01*
X78302380Y-105306857D01*
X78302380Y-105211619D01*
X78254761Y-105068761D01*
X78159523Y-104973523D01*
X78064285Y-104925904D01*
X77873809Y-104878285D01*
X77730952Y-104878285D01*
X77540476Y-104925904D01*
X77445238Y-104973523D01*
X77350000Y-105068761D01*
X77302380Y-105211619D01*
X77302380Y-105306857D01*
X77350000Y-105449714D01*
X77397619Y-105497333D01*
X77302380Y-105830666D02*
X77302380Y-106497333D01*
X78302380Y-106068761D01*
X78207142Y-109131833D02*
X78254761Y-109084214D01*
X78302380Y-108941357D01*
X78302380Y-108846119D01*
X78254761Y-108703261D01*
X78159523Y-108608023D01*
X78064285Y-108560404D01*
X77873809Y-108512785D01*
X77730952Y-108512785D01*
X77540476Y-108560404D01*
X77445238Y-108608023D01*
X77350000Y-108703261D01*
X77302380Y-108846119D01*
X77302380Y-108941357D01*
X77350000Y-109084214D01*
X77397619Y-109131833D01*
X77302380Y-109988976D02*
X77302380Y-109798500D01*
X77350000Y-109703261D01*
X77397619Y-109655642D01*
X77540476Y-109560404D01*
X77730952Y-109512785D01*
X78111904Y-109512785D01*
X78207142Y-109560404D01*
X78254761Y-109608023D01*
X78302380Y-109703261D01*
X78302380Y-109893738D01*
X78254761Y-109988976D01*
X78207142Y-110036595D01*
X78111904Y-110084214D01*
X77873809Y-110084214D01*
X77778571Y-110036595D01*
X77730952Y-109988976D01*
X77683333Y-109893738D01*
X77683333Y-109703261D01*
X77730952Y-109608023D01*
X77778571Y-109560404D01*
X77873809Y-109512785D01*
X96495142Y-103386833D02*
X96542761Y-103339214D01*
X96590380Y-103196357D01*
X96590380Y-103101119D01*
X96542761Y-102958261D01*
X96447523Y-102863023D01*
X96352285Y-102815404D01*
X96161809Y-102767785D01*
X96018952Y-102767785D01*
X95828476Y-102815404D01*
X95733238Y-102863023D01*
X95638000Y-102958261D01*
X95590380Y-103101119D01*
X95590380Y-103196357D01*
X95638000Y-103339214D01*
X95685619Y-103386833D01*
X95590380Y-104291595D02*
X95590380Y-103815404D01*
X96066571Y-103767785D01*
X96018952Y-103815404D01*
X95971333Y-103910642D01*
X95971333Y-104148738D01*
X96018952Y-104243976D01*
X96066571Y-104291595D01*
X96161809Y-104339214D01*
X96399904Y-104339214D01*
X96495142Y-104291595D01*
X96542761Y-104243976D01*
X96590380Y-104148738D01*
X96590380Y-103910642D01*
X96542761Y-103815404D01*
X96495142Y-103767785D01*
X90004166Y-114277142D02*
X90051785Y-114324761D01*
X90194642Y-114372380D01*
X90289880Y-114372380D01*
X90432738Y-114324761D01*
X90527976Y-114229523D01*
X90575595Y-114134285D01*
X90623214Y-113943809D01*
X90623214Y-113800952D01*
X90575595Y-113610476D01*
X90527976Y-113515238D01*
X90432738Y-113420000D01*
X90289880Y-113372380D01*
X90194642Y-113372380D01*
X90051785Y-113420000D01*
X90004166Y-113467619D01*
X89147023Y-113705714D02*
X89147023Y-114372380D01*
X89385119Y-113324761D02*
X89623214Y-114039047D01*
X89004166Y-114039047D01*
X78463142Y-96528833D02*
X78510761Y-96481214D01*
X78558380Y-96338357D01*
X78558380Y-96243119D01*
X78510761Y-96100261D01*
X78415523Y-96005023D01*
X78320285Y-95957404D01*
X78129809Y-95909785D01*
X77986952Y-95909785D01*
X77796476Y-95957404D01*
X77701238Y-96005023D01*
X77606000Y-96100261D01*
X77558380Y-96243119D01*
X77558380Y-96338357D01*
X77606000Y-96481214D01*
X77653619Y-96528833D01*
X77558380Y-96862166D02*
X77558380Y-97481214D01*
X77939333Y-97147880D01*
X77939333Y-97290738D01*
X77986952Y-97385976D01*
X78034571Y-97433595D01*
X78129809Y-97481214D01*
X78367904Y-97481214D01*
X78463142Y-97433595D01*
X78510761Y-97385976D01*
X78558380Y-97290738D01*
X78558380Y-97005023D01*
X78510761Y-96909785D01*
X78463142Y-96862166D01*
X92431142Y-96431833D02*
X92478761Y-96384214D01*
X92526380Y-96241357D01*
X92526380Y-96146119D01*
X92478761Y-96003261D01*
X92383523Y-95908023D01*
X92288285Y-95860404D01*
X92097809Y-95812785D01*
X91954952Y-95812785D01*
X91764476Y-95860404D01*
X91669238Y-95908023D01*
X91574000Y-96003261D01*
X91526380Y-96146119D01*
X91526380Y-96241357D01*
X91574000Y-96384214D01*
X91621619Y-96431833D01*
X91621619Y-96812785D02*
X91574000Y-96860404D01*
X91526380Y-96955642D01*
X91526380Y-97193738D01*
X91574000Y-97288976D01*
X91621619Y-97336595D01*
X91716857Y-97384214D01*
X91812095Y-97384214D01*
X91954952Y-97336595D01*
X92526380Y-96765166D01*
X92526380Y-97384214D01*
X81017166Y-118085142D02*
X81064785Y-118132761D01*
X81207642Y-118180380D01*
X81302880Y-118180380D01*
X81445738Y-118132761D01*
X81540976Y-118037523D01*
X81588595Y-117942285D01*
X81636214Y-117751809D01*
X81636214Y-117608952D01*
X81588595Y-117418476D01*
X81540976Y-117323238D01*
X81445738Y-117228000D01*
X81302880Y-117180380D01*
X81207642Y-117180380D01*
X81064785Y-117228000D01*
X81017166Y-117275619D01*
X80064785Y-118180380D02*
X80636214Y-118180380D01*
X80350500Y-118180380D02*
X80350500Y-117180380D01*
X80445738Y-117323238D01*
X80540976Y-117418476D01*
X80636214Y-117466095D01*
M02*
