G04 #@! TF.GenerationSoftware,KiCad,Pcbnew,(5.1.4)-1*
G04 #@! TF.CreationDate,2022-10-19T22:43:07-05:00*
G04 #@! TF.ProjectId,MusePad,4d757365-5061-4642-9e6b-696361645f70,rev?*
G04 #@! TF.SameCoordinates,Original*
G04 #@! TF.FileFunction,Copper,L1,Top*
G04 #@! TF.FilePolarity,Positive*
%FSLAX46Y46*%
G04 Gerber Fmt 4.6, Leading zero omitted, Abs format (unit mm)*
G04 Created by KiCad (PCBNEW (5.1.4)-1) date 2022-10-19 22:43:07*
%MOMM*%
%LPD*%
G04 APERTURE LIST*
%ADD10O,1.000000X2.100000*%
%ADD11O,1.000000X1.600000*%
%ADD12C,2.250000*%
%ADD13C,2.250000*%
%ADD14C,0.800000*%
%ADD15C,0.250000*%
G04 APERTURE END LIST*
D10*
X43432000Y-93394000D03*
X52072000Y-93394000D03*
D11*
X43432000Y-89214000D03*
X52072000Y-89214000D03*
D12*
X52030000Y-118682000D03*
X52684999Y-119412000D03*
D13*
X53340000Y-120142000D02*
X52029998Y-118682000D01*
D12*
X46990000Y-117602000D03*
X47010000Y-117892000D03*
D13*
X47030000Y-118182000D02*
X46990000Y-117602000D01*
D12*
X71080000Y-118682000D03*
X71734999Y-119412000D03*
D13*
X72390000Y-120142000D02*
X71079998Y-118682000D01*
D12*
X66040000Y-117602000D03*
X66060000Y-117892000D03*
D13*
X66080000Y-118182000D02*
X66040000Y-117602000D01*
D12*
X67016000Y-99632000D03*
X67670999Y-100362000D03*
D13*
X68326000Y-101092000D02*
X67015998Y-99632000D01*
D12*
X61976000Y-98552000D03*
X61996000Y-98842000D03*
D13*
X62016000Y-99132000D02*
X61976000Y-98552000D01*
D12*
X90130000Y-118682000D03*
X90784999Y-119412000D03*
D13*
X91440000Y-120142000D02*
X90129998Y-118682000D01*
D12*
X85090000Y-117602000D03*
X85110000Y-117892000D03*
D13*
X85130000Y-118182000D02*
X85090000Y-117602000D01*
D14*
X52893982Y-101557378D03*
X73914000Y-108031769D03*
X80010000Y-118110000D03*
X74422000Y-110490000D03*
X51054000Y-110982003D03*
X92202000Y-114808000D03*
X95250000Y-131064000D03*
X94788010Y-106426000D03*
X67056000Y-112522000D03*
X93218000Y-105664000D03*
X94483347Y-107446653D03*
X94488000Y-108458000D03*
X94475349Y-109470654D03*
X52070000Y-103124000D03*
X77724000Y-109511000D03*
X52070000Y-102123997D03*
X78299946Y-108545664D03*
X73406000Y-110490000D03*
X51054000Y-109982000D03*
D15*
X52893982Y-101557378D02*
X59368373Y-108031769D01*
X59368373Y-108031769D02*
X73914000Y-108031769D01*
X80010000Y-118110000D02*
X80010000Y-116078000D01*
X75307998Y-111382002D02*
X75311000Y-111379000D01*
X51453999Y-111382002D02*
X75307998Y-111382002D01*
X51054000Y-110982003D02*
X51453999Y-111382002D01*
X80010000Y-116078000D02*
X75311000Y-111379000D01*
X75311000Y-111379000D02*
X74422000Y-110490000D01*
X80010000Y-118110000D02*
X83058000Y-115062000D01*
X83058000Y-115062000D02*
X83312000Y-114808000D01*
X83312000Y-114808000D02*
X92202000Y-114808000D01*
X96931990Y-129382010D02*
X96931990Y-108869990D01*
X95250000Y-131064000D02*
X96931990Y-129382010D01*
X96931990Y-108869990D02*
X94788010Y-106726010D01*
X94788010Y-106726010D02*
X94788010Y-106426000D01*
X92550001Y-115533001D02*
X93218000Y-114865002D01*
X83660001Y-115533001D02*
X92550001Y-115533001D01*
X80358001Y-118835001D02*
X83660001Y-115533001D01*
X79661999Y-118835001D02*
X80358001Y-118835001D01*
X67056000Y-112522000D02*
X73348998Y-112522000D01*
X73348998Y-112522000D02*
X79661999Y-118835001D01*
X93218000Y-114865002D02*
X93218000Y-105664000D01*
X91440000Y-120142000D02*
X96266000Y-120142000D01*
X96266000Y-120142000D02*
X96266000Y-108840410D01*
X96266000Y-108840410D02*
X94872243Y-107446653D01*
X94872243Y-107446653D02*
X94483347Y-107446653D01*
X90826001Y-117231999D02*
X93218000Y-119623998D01*
X89433999Y-117231999D02*
X90826001Y-117231999D01*
X72390000Y-120142000D02*
X86523998Y-120142000D01*
X86523998Y-120142000D02*
X89433999Y-117231999D01*
X94244002Y-119623998D02*
X94311994Y-119691990D01*
X93218000Y-119623998D02*
X94244002Y-119623998D01*
X95700010Y-119691990D02*
X95758000Y-119634000D01*
X94311994Y-119691990D02*
X95700010Y-119691990D01*
X95758000Y-119634000D02*
X95758000Y-109728000D01*
X95758000Y-109728000D02*
X94488000Y-108458000D01*
X89247599Y-116781989D02*
X91012402Y-116781990D01*
X67473998Y-120142000D02*
X70383999Y-117231999D01*
X53340000Y-120142000D02*
X67473998Y-120142000D01*
X70383999Y-117231999D02*
X71776001Y-117231999D01*
X71776001Y-117231999D02*
X74235992Y-119691990D01*
X74235992Y-119691990D02*
X86337598Y-119691990D01*
X86337598Y-119691990D02*
X89247599Y-116781989D01*
X94430403Y-119173989D02*
X94498394Y-119241980D01*
X91012402Y-116781990D02*
X93404400Y-119173988D01*
X93404400Y-119173988D02*
X94430403Y-119173989D01*
X94498394Y-119241980D02*
X94880020Y-119241980D01*
X95134020Y-119241980D02*
X95307990Y-119068010D01*
X94880020Y-119241980D02*
X95134020Y-119241980D01*
X95307990Y-119068010D02*
X95307990Y-110303295D01*
X95307990Y-110303295D02*
X94475349Y-109470654D01*
X67091002Y-109511000D02*
X77724000Y-109511000D01*
X52070000Y-103124000D02*
X58457000Y-109511000D01*
X58457000Y-109511000D02*
X67091002Y-109511000D01*
X52142999Y-102123997D02*
X59079992Y-109060990D01*
X52070000Y-102123997D02*
X52142999Y-102123997D01*
X78088841Y-108756769D02*
X78299946Y-108545664D01*
X59079992Y-109060990D02*
X59384213Y-108756769D01*
X59384213Y-108756769D02*
X78088841Y-108756769D01*
X73406000Y-110490000D02*
X72898000Y-109982000D01*
X72898000Y-109982000D02*
X51054000Y-109982000D01*
M02*
